<svg height="45" viewBox="0 0 335 45" width="335" xmlns="http://www.w3.org/2000/svg" xmlns:xlink="http://www.w3.org/1999/xlink"><clipPath id="a"><path d="m335 0v45h-335v-45z"/></clipPath><clipPath id="b"><path d="m7.50933349 0c4.38331171 0 7.21540881 3.05588752 7.21540881 7.78488576s-2.8547067 7.78488574-7.27340733 7.78488574c-1.79500497 0-3.65194056-.8336028-4.72835372-2.100246v7.2376801h-2.72298125v-20.47100173h2.72298125v1.90340949c.93878956-1.2745167 2.84487644-2.13961336 4.78635224-2.13961336zm-.29490772 2.46045694c-2.85372367 0-4.69787992 2.09040422-4.69787992 5.32442882 0 3.23402464 1.84415625 5.32344464 4.69787992 5.32344464 2.89107863 0 4.75784453-2.08942 4.75784453-5.32344464 0-3.2340246-1.8667659-5.32442882-4.75784453-5.32442882z"/></clipPath><clipPath id="c"><path d="m7.24489957 0c.63896672 0 1.24254451.09349736 1.74487065.27163445l.07765904.02657293-.00589816.08168717-.15531806 2.57363796-.14057268-.05905096c-.52296968-.21947276-1.20617256-.34544816-1.87463005-.34544816-2.57159529 0-4.16802906 2.68485062-4.16802906 7.00738137v5.77715294h-2.72298125v-15.09736383h2.72298125v2.66516696c.95058587-1.70362039 2.78589489-2.90137083 4.52191832-2.90137083z"/></clipPath><clipPath id="d"><path d="m7.30388111 0c4.18080839 0 7.21540879 2.98797891 7.21540879 7.10579965 0 .34347979-.0275247.87690685-.0599646 1.16330404l-.0098302.09644991h-11.71864965c.21429961 2.9033392 2.02208391 4.7732865 4.63300023 4.7732865 2.22065511 0 3.74041292-1.0353603 4.16999512-2.8393673l.0255587-.1053076 2.5696292.6111775-.0265417.1062917c-.7431674 2.9171178-3.2616793 4.6581371-6.73864132 4.6581371-4.26633163 0-7.36384568-3.2743761-7.36384568-7.78488574 0-4.58333919 3.00412661-7.78488576 7.30388111-7.78488576zm0 2.31282953c-2.24523075 0-3.88491765 1.39458699-4.40788733 3.73989455h8.74008172c-.2899926-2.31086116-1.93950978-3.73989455-4.33219439-3.73989455z"/></clipPath><clipPath id="e"><path d="m16.739945 0c3.2184262 0 5.2985087 2.05891037 5.2985087 5.2456942v10.0878735h-2.7239643v-9.58692447c0-2.07564147-1.1717667-3.31571177-3.134869-3.31571177-2.3523806 0-3.8131568 2.0402109-3.8131568 5.32442882v7.57820742h-2.7239643v-9.58692447c0-.99107205-.27819628-1.8227065-.80411504-2.40239015-.5426302-.59739895-1.337898-.91332162-2.30224624-.91332162-2.35139752 0-3.81315677 2.0402109-3.81315677 5.32442882v7.57820742h-2.72298125v-15.09736383h2.72298125v2.42207381c.88177407-1.71936731 2.41726025-2.65827768 4.37446446-2.65827768 2.44478497 0 4.23880689 1.09244288 4.85909619 2.93876977.9279762-1.81975395 2.7367436-2.93876977 4.7834031-2.93876977z"/></clipPath><clipPath id="f"><path d="m2.72396427 0v15.0973638h-2.72396427v-15.0973638z"/></clipPath><clipPath id="g"><path d="m1.84907138 0c1.08722645 0 1.9070699.80801406 1.9070699 1.8797891 0 1.05405976-.81984345 1.85026362-1.9070699 1.85026362-1.0547866 0-1.84907138-.79620386-1.84907138-1.85026362 0-1.07177504.79428478-1.8797891 1.84907138-1.8797891z"/></clipPath><clipPath id="h"><path d="m2.72298125 0v9.4973638c0 2.0323374 1.27695041 3.3452373 3.25381514 3.3452373 2.73379453 0 4.43246301-2.3787698 4.43246301-6.208225v-6.6343761h2.7229812v15.0973638h-2.7229812v-2.5323023c-1.15898736 1.7646397-2.95989048 2.7685062-4.9937707 2.7685062-3.18893544 0-5.4154887-2.2055536-5.4154887-5.36379617v-9.96977153z"/></clipPath><clipPath id="i"><path d="m16.739945 0c3.2184262 0 5.2985087 2.05891037 5.2985087 5.2456942v10.0878735h-2.7239643v-9.58692447c0-2.07564147-1.1717667-3.31571177-3.134869-3.31571177-2.3523806 0-3.8131568 2.0402109-3.8131568 5.32442882v7.57820742h-2.7239643v-9.58692447c0-.99107205-.27819628-1.8227065-.80411504-2.40239015-.5426302-.59739895-1.337898-.91332162-2.30224624-.91332162-2.35139752 0-3.81315677 2.0402109-3.81315677 5.32442882v7.57820742h-2.72298125v-15.09736383h2.72298125v2.42207381c.88177407-1.71936731 2.41726025-2.65827768 4.37446446-2.65827768 2.44478497 0 4.23880689 1.09244288 4.85909619 2.93876977.9279762-1.81975395 2.7367436-2.93876977 4.7834031-2.93876977z"/></clipPath><clipPath id="j"><path d="m1.66819465 0c.9210951 0 1.66819465.74797891 1.66819465 1.67015817s-.74709955 1.67015817-1.66819465 1.67015817c-.92207813 0-1.66819465-.74797891-1.66819465-1.67015817s.74611652-1.67015817 1.66819465-1.67015817z"/></clipPath><clipPath id="k"><path d="m1.66819465 0c.92207813 0 1.66917767.74797891 1.66917767 1.67015817s-.74709954 1.67015817-1.66917767 1.67015817c-.9210951 0-1.66819465-.74797891-1.66819465-1.67015817s.74709955-1.67015817 1.66819465-1.67015817z"/></clipPath><clipPath id="l"><path d="m2.65908458 0v14.9172583h-2.65908458v-14.9172583z"/></clipPath><clipPath id="m"><path d="m2.6600676 0v14.9172583h-2.6600676v-14.9172583z"/></clipPath><clipPath id="n"><path d="m4.80109762 0v5.77321617h3.91440843v2.66221441h-3.91440843v7.71599302c0 1.104253.74709955 1.8748681 1.81859759 1.8748681h2.09581084v2.6622145h-2.30519532c-2.3543466 0-4.26928071-1.9171881-4.26928071-4.2733217v-7.97975392h-2.14103002v-2.66221441h2.14103002v-5.77321617z"/></clipPath><clipPath id="o"><path d="m4.80208065 0v5.77321617h3.9134254v2.66221441h-3.9134254v7.71599302c0 1.104253.74709955 1.8748681 1.81859759 1.8748681h2.09482781v2.6622145h-2.30421229c-2.35434661 0-4.26928071-1.9171881-4.26928071-4.2733217v-7.97975392h-2.14201305v-2.66221441h2.14201305v-5.77321617z"/></clipPath><clipPath id="p"><path d="m9.08414069 0v2.66221441h-2.46346245c-1.03709214 0-1.81859759.84639719-1.81859759 1.96934974v3.07458699h4.28206004v2.66221446h-4.28206004v12.2540597h-2.6600676v-12.2540597h-2.14201305v-2.66221446h2.14201305v-3.07557118c0-2.5539543 2.0751673-4.63057996 4.62611904-4.63057996z"/></clipPath><clipPath id="q"><path d="m2.71708309 0v9.80246046c1.00465229-1.26369069 2.68857535-2.37581723 5.09993745-2.37384886 4.20636706.00196836 7.29306786 3.3048858 7.29306786 7.7091037s-3.0867008 7.7071353-7.29306786 7.7091063c-2.4113621.0019657-4.09528516-1.1101608-5.09993745-2.3738515v2.1258348h-2.71708309v-22.5988049zm4.84533379 10.1488928c-2.66596576 0-4.82763932 2.2331107-4.82960537 4.9888225.00196605 2.7557118 2.16363961 4.9888225 4.82960537 4.9888225 2.66694882 0 4.82862232-2.2331107 4.82960532-4.9888225-.000983-2.7557118-2.1626565-4.9888225-4.82960532-4.9888225z"/></clipPath><g clip-path="url(#a)"><g transform="translate(1 10)"><g clip-path="url(#b)" transform="translate(71.835588 7.292794)"><path d="m0 0h14.7247423v20.7072056h-14.7247423z" fill="#0a0a08"/></g><g clip-path="url(#c)" transform="translate(89.558558 7.292794)"><path d="m0 0h9.06742926v15.3335677h-9.06742926z" fill="#0a0a08"/></g><g clip-path="url(#d)" transform="translate(99.318038 7.292794)"><path d="m0 0h14.5192899v15.5697715h-14.5192899z" fill="#0a0a08"/></g><g clip-path="url(#e)" transform="translate(116.835556 7.292794)"><path d="m0 0h22.0384537v15.3335677h-22.0384537z" fill="#0a0a08"/></g><g clip-path="url(#f)" transform="translate(142.284126 7.528998)"><path d="m0 0h2.72396427v15.0973638h-2.72396427z" fill="#0a0a08"/></g><g clip-path="url(#g)" transform="translate(141.782783 1.210545)"><path d="m0 0h3.75614128v3.73005272h-3.75614128z" fill="#0a0a08"/></g><g clip-path="url(#h)" transform="translate(148.418206 7.528998)"><path d="m0 0h13.1322406v15.3335677h-13.1322406z" fill="#0a0a08"/></g><g clip-path="url(#i)" transform="translate(164.961546 7.292794)"><path d="m0 0h22.0384537v15.3335677h-22.0384537z" fill="#0a0a08"/></g><g clip-path="url(#j)" transform="translate(12.067624 1.820738)"><path d="m0 0h3.3363893v3.34031634h-3.3363893z" fill="#0a0a08"/></g><g clip-path="url(#k)" transform="translate(47.410348 1.820738)"><path d="m0 0h3.33737232v3.34031634h-3.33737232z" fill="#0a0a08"/></g><g clip-path="url(#l)" transform="translate(12.405785 7.706151)"><path d="m0 0h2.65908458v14.9172583h-2.65908458z" fill="#0a0a08"/></g><g clip-path="url(#m)" transform="translate(47.749491 7.706151)"><path d="m0 0h2.6600676v14.9172583h-2.6600676z" fill="#0a0a08"/></g><g clip-path="url(#n)" transform="translate(53.529683 1.932935)"><path d="m0 0h8.71550605v20.6885062h-8.71550605z" fill="#0a0a08"/></g><g clip-path="url(#o)" transform="translate(18.45041 1.932935)"><path d="m0 0h8.71550605v20.6885062h-8.71550605z" fill="#0a0a08"/></g><g clip-path="url(#p)"><path d="m0 0h9.08414069v22.6224253h-9.08414069z" fill="#0a0a08"/></g><g clip-path="url(#q)" transform="translate(30.239837 .02362)"><path d="m0 0h15.1100884v22.8468242h-15.1100884z" fill="#0a0a08"/></g></g></g></svg>